<?xml version="1.0" standalone="no"?>
<!DOCTYPE svg PUBLIC "-//W3C//DTD SVG 1.1//EN" "http://www.w3.org/Graphics/SVG/1.1/DTD/svg11.dtd">
<svg
  class="icon"
  viewBox="0 0 1024 1024"
  version="1.1"
  xmlns="http://www.w3.org/2000/svg"
  xmlns:xlink="http://www.w3.org/1999/xlink"
  width="200"
  height="200">
  <path d="M298.666667 938.666667a42.666667 42.666667 0 0 1-42.666667-42.666667v-234.666667a42.666667 42.666667 0 0 1 85.333333 0V896a42.666667 42.666667 0 0 1-42.666666 42.666667zM298.666667 298.666667a42.666667 42.666667 0 0 1-42.666667-42.666667V128a42.666667 42.666667 0 1 1 85.333333 0v128a42.666667 42.666667 0 0 1-42.666666 42.666667z m256 640a42.666667 42.666667 0 0 1-42.666667-42.666667V128a42.666667 42.666667 0 1 1 85.333333 0v768a42.666667 42.666667 0 0 1-42.666666 42.666667z m256 0a42.666667 42.666667 0 0 1-42.666667-42.666667v-128a42.666667 42.666667 0 1 1 85.333333 0v128a42.666667 42.666667 0 0 1-42.666666 42.666667z m0-533.333334a42.666667 42.666667 0 0 1-42.666667-42.666666V128a42.666667 42.666667 0 1 1 85.333333 0v234.666667a42.666667 42.666667 0 0 1-42.666666 42.666666z" fill="#2c2c2c" />
  <path d="M384 341.333333v85.333334a85.333333 85.333333 0 1 1-170.666667 0V341.333333a85.333333 85.333333 0 1 1 170.666667 0z" fill="#2c2c2c" />
  <path d="M256 426.666667a42.666667 42.666667 0 0 0 85.333333 0V341.333333a42.666667 42.666667 0 0 0-85.333333 0v85.333334z m42.666667 128a128 128 0 0 1-128-128V341.333333a128 128 0 0 1 256 0v85.333334a128 128 0 0 1-128 128z" fill="#2c2c2c" />
  <path d="M896 597.333333v85.333334a85.333333 85.333333 0 1 1-170.666667 0v-85.333334a85.333333 85.333333 0 1 1 170.666667 0z" fill="#2c2c2c" />
  <path d="M768 682.666667a42.666667 42.666667 0 0 0 85.333333 0v-85.333334a42.666667 42.666667 0 0 0-85.333333 0v85.333334z m42.666667 128a128 128 0 0 1-128-128v-85.333334a128 128 0 0 1 256 0v85.333334a128 128 0 0 1-128 128z" fill="#2c2c2c" />
</svg>
