<?xml version="1.0" standalone="no"?>
<!DOCTYPE svg PUBLIC "-//W3C//DTD SVG 1.1//EN" "http://www.w3.org/Graphics/SVG/1.1/DTD/svg11.dtd">
<svg class="icon"
     viewBox="0 0 1025 1024"
     version="1.1"
     xmlns="http://www.w3.org/2000/svg"
     width="200.1953125"
     height="200">
  <path d="M1013.24785 959.979964l-255.587541-255.587542 236.039737-237.017127a39.584304 39.584304 0 0 0-3.420866-58.643413 412.947366 412.947366 0 0 0-387.53522-70.860791l-244.347554-195.478043A218.935408 218.935408 0 0 0 321.744273 17.287101 38.118218 38.118218 0 0 0 262.612165 11.422759L11.42288 262.12335a38.118218 38.118218 0 0 0 5.864341 59.132108 219.912798 219.912798 0 0 0 126.572033 35.186047l195.478043 244.347554a413.436061 413.436061 0 0 0 71.838181 390.956087 39.095609 39.095609 0 0 0 58.154717 2.93217l236.039737-237.017127 255.587542 255.587541a37.140828 37.140828 0 0 0 26.389536 10.751293 37.140828 37.140828 0 0 0 26.389535-63.530364z" fill="#5E5C5C" />
</svg>
